<?xml version="1.0" standalone="no"?>
<!DOCTYPE svg PUBLIC "-//W3C//DTD SVG 20010904//EN"
 "http://www.w3.org/TR/2001/REC-SVG-20010904/DTD/svg10.dtd">
<svg version="1.0" xmlns="http://www.w3.org/2000/svg"
 width="482.000000pt" height="424.000000pt" viewBox="0 0 482.000000 424.000000"
 preserveAspectRatio="xMidYMid meet">

<g transform="translate(0.000000,424.000000) scale(0.100000,-0.100000)"
fill="#000000" stroke="none">
<path d="M2324 3614 c-22 -8 -40 -14 -41 -14 0 0 -10 -14 -20 -30 l-19 -30
-930 0 c-618 0 -942 -4 -967 -11 -20 -5 -44 -21 -53 -34 -18 -28 -21 -93 -5
-123 21 -40 49 -47 221 -52 l165 -5 0 -477 c0 -472 0 -477 -21 -500 -51 -56
-57 -111 -19 -173 22 -37 24 -50 25 -162 0 -101 3 -123 15 -123 11 0 15 18 17
83 4 117 22 104 25 -18 4 -127 9 -151 28 -135 11 9 15 36 15 101 0 72 3 89 15
89 11 0 15 -12 15 -45 0 -33 4 -45 15 -45 12 0 15 19 15 110 0 100 2 112 25
146 40 58 33 117 -21 175 l-24 25 2 475 3 474 268 3 c147 1 267 0 267 -2 0 -3
-11 -47 -25 -98 -14 -51 -30 -120 -36 -153 -18 -95 -37 -299 -30 -308 4 -4
511 -6 1127 -5 l1119 3 -3 45 c-8 119 -35 296 -62 399 -17 63 -30 116 -30 117
0 2 218 4 485 4 517 0 539 2 564 48 17 32 13 104 -8 131 -12 16 -33 26 -68 31
-28 5 -462 9 -964 9 l-914 1 -14 24 c-30 49 -97 71 -157 50z"/>
<path d="M2315 2690 l-1160 -5 -38 -23 c-20 -13 -50 -45 -65 -70 l-27 -47 0
-765 c0 -421 3 -777 8 -792 11 -40 66 -98 112 -119 38 -18 100 -19 1225 -19
1125 0 1187 1 1225 19 51 23 101 80 115 130 7 27 10 283 8 793 l-3 753 -28 47
c-34 58 -93 95 -162 100 -27 2 -572 1 -1210 -2z m1193 -196 c21 -15 22 -21 22
-170 l0 -154 -1160 0 -1160 0 0 154 c0 149 1 155 22 170 20 14 145 16 1138 16
993 0 1118 -2 1138 -16z m22 -973 l0 -460 -22 -15 c-20 -14 -145 -16 -1138
-16 -993 0 -1118 2 -1138 16 l-22 15 0 460 0 459 1160 0 1160 0 0 -459z"/>
<path d="M2013 763 c-3 -10 -24 -72 -46 -138 l-42 -120 -125 -5 -125 -5 0 -55
0 -55 695 0 695 0 0 55 0 55 -125 5 -125 5 -46 135 -46 135 -352 3 c-330 2
-353 1 -358 -15z"/>
</g>
</svg>
